<svg xmlns="http://www.w3.org/2000/svg"
     viewBox="0 0 1024 1024">
  <path
        d="M 444.60,628.00
           C 434.19,645.25 422.72,664.74 409.73,680.00
             406.89,683.33 404.32,686.09 402.19,690.00
             399.80,694.38 400.38,696.82 395.94,700.05
             388.17,705.70 370.58,715.57 361.00,715.96
             348.66,716.46 339.99,708.95 332.44,700.00
             319.00,684.08 310.03,666.20 310.00,645.00
             310.00,645.00 310.00,620.00 310.00,620.00
             310.00,620.00 310.91,610.00 310.91,610.00
             310.91,610.00 316.73,562.00 316.73,562.00
             316.73,562.00 330.66,480.00 330.66,480.00
             330.66,480.00 343.12,430.00 343.12,430.00
             343.12,430.00 350.42,391.00 350.42,391.00
             350.42,391.00 357.65,358.00 357.65,358.00
             357.65,358.00 368.63,314.00 368.63,314.00
             368.63,314.00 375.15,287.00 375.15,287.00
             375.15,287.00 384.12,257.00 384.12,257.00
             384.12,257.00 410.65,184.00 410.65,184.00
             410.65,184.00 425.19,130.00 425.19,130.00
             429.22,121.39 435.31,119.91 444.00,120.00
             447.36,120.04 449.91,120.12 453.00,121.69
             459.84,125.15 461.25,131.92 464.92,138.00
             468.88,144.56 475.90,151.40 476.82,159.00
             477.76,166.82 474.20,170.27 471.71,177.00
             471.71,177.00 468.42,188.00 468.42,188.00
             462.33,209.90 459.63,232.96 450.72,254.00
             450.72,254.00 437.34,285.00 437.34,285.00
             430.44,304.90 416.65,363.66 411.12,387.00
             411.12,387.00 393.42,456.00 393.42,456.00
             393.42,456.00 380.59,533.00 380.59,533.00
             380.59,533.00 373.73,579.00 373.73,579.00
             373.73,579.00 369.17,611.00 369.17,611.00
             369.17,611.00 367.91,630.00 367.91,630.00
             367.91,630.00 363.32,657.00 363.32,657.00
             363.72,662.32 363.80,675.86 371.00,676.18
             374.38,676.33 377.16,673.33 379.11,670.96
             379.11,670.96 392.17,655.00 392.17,655.00
             392.17,655.00 413.56,633.00 413.56,633.00
             413.56,633.00 432.65,606.00 432.65,606.00
             432.65,606.00 450.43,583.00 450.43,583.00
             453.54,577.54 448.82,565.59 448.17,559.00
             446.42,541.25 447.01,528.44 451.37,511.00
             455.58,494.19 464.52,475.92 471.70,460.00
             482.04,437.07 491.88,414.17 505.66,393.00
             510.75,385.17 522.10,367.41 530.00,363.45
             532.78,362.06 535.95,361.88 539.00,362.04
             545.55,362.38 550.04,366.27 556.00,368.53
             562.73,371.09 574.85,369.84 581.36,378.10
             586.94,385.18 585.43,395.54 587.29,404.00
             588.74,410.63 591.40,412.71 593.01,417.00
             594.22,420.22 593.85,422.71 594.29,426.00
             596.38,441.84 601.96,445.55 604.89,454.00
             606.59,458.89 607.54,471.33 608.00,477.00
             608.00,477.00 651.00,461.23 651.00,461.23
             655.10,459.70 665.82,457.21 668.49,454.49
             671.14,451.79 671.33,444.88 672.23,441.00
             674.94,429.34 680.21,411.73 693.00,407.86
             697.61,406.46 703.17,410.32 707.00,412.60
             723.69,422.56 726.21,433.77 726.00,452.00
             725.89,460.69 721.31,473.38 718.72,482.00
             718.72,482.00 700.79,544.00 700.79,544.00
             699.24,551.29 697.16,558.51 697.00,566.00
             707.67,555.22 712.17,543.87 719.42,531.00
             733.06,506.81 742.63,486.78 759.49,464.00
             767.56,453.09 764.23,442.52 774.04,438.23
             779.73,435.73 786.02,438.29 791.00,441.26
             802.39,448.06 808.66,460.73 807.91,474.00
             807.91,474.00 807.00,486.00 807.00,486.00
             807.00,486.00 806.00,506.00 806.00,506.00
             806.00,506.00 804.17,528.00 804.17,528.00
             804.17,528.00 801.91,560.00 801.91,560.00
             801.91,560.00 800.09,581.00 800.09,581.00
             800.09,581.00 803.00,604.00 803.00,604.00
             808.87,599.56 809.72,595.45 812.42,589.00
             812.42,589.00 823.40,561.00 823.40,561.00
             823.40,561.00 836.86,529.00 836.86,529.00
             836.86,529.00 843.91,513.00 843.91,513.00
             843.91,513.00 849.72,490.00 849.72,490.00
             849.72,490.00 864.00,451.00 864.00,451.00
             864.00,451.00 873.25,428.00 873.25,428.00
             873.25,428.00 877.44,412.00 877.44,412.00
             878.98,407.10 881.73,403.51 887.00,402.40
             893.05,401.12 906.35,409.39 906.31,416.00
             906.29,419.50 899.72,434.86 898.01,439.00
             898.01,439.00 885.33,476.00 885.33,476.00
             885.33,476.00 872.00,514.00 872.00,514.00
             872.00,514.00 864.31,538.00 864.31,538.00
             864.31,538.00 856.86,558.00 856.86,558.00
             856.86,558.00 849.77,582.00 849.77,582.00
             849.77,582.00 839.32,606.00 839.32,606.00
             839.32,606.00 834.40,626.00 834.40,626.00
             831.96,633.42 821.64,651.64 816.76,658.00
             811.38,665.03 799.63,675.63 790.00,674.77
             784.79,674.31 781.49,670.46 778.00,667.00
             769.85,658.90 762.99,651.78 758.34,641.00
             752.27,626.94 753.98,605.49 754.00,590.00
             754.00,590.00 755.00,574.00 755.00,574.00
             755.00,574.00 755.00,557.00 755.00,557.00
             755.00,557.00 756.00,544.00 756.00,544.00
             756.00,544.00 756.00,522.00 756.00,522.00
             747.09,532.88 742.63,546.66 736.22,559.00
             736.22,559.00 727.30,575.00 727.30,575.00
             727.30,575.00 720.46,585.00 720.46,585.00
             720.46,585.00 707.00,609.00 707.00,609.00
             702.40,617.10 698.41,625.47 692.84,633.00
             690.54,636.12 687.74,639.83 684.00,641.26
             677.70,643.67 671.50,640.03 667.00,635.91
             658.43,628.06 651.38,618.16 647.89,607.00
             642.16,588.69 645.97,570.46 648.58,552.00
             648.58,552.00 650.29,532.00 650.29,532.00
             652.06,517.60 657.39,495.84 662.00,482.00
             662.00,482.00 627.00,492.34 627.00,492.34
             621.48,494.27 614.21,497.38 610.56,502.04
             607.58,505.84 605.83,512.31 604.63,517.00
             604.63,517.00 598.13,545.00 598.13,545.00
             593.85,562.61 588.61,572.67 581.86,589.00
             573.68,608.79 572.13,618.08 556.83,635.00
             541.17,652.32 521.11,658.74 500.00,646.96
             493.28,643.21 488.44,639.44 483.00,634.00
             476.06,627.05 464.75,611.41 462.00,602.00
             462.00,602.00 460.00,602.00 460.00,602.00
             457.58,608.33 448.60,621.37 444.60,628.00 Z
           M 249.81,547.89
           C 256.00,552.30 258.74,571.28 261.04,579.00
             261.04,579.00 274.48,613.00 274.48,613.00
             280.55,631.01 285.97,662.05 286.00,681.00
             286.00,681.00 286.00,718.00 286.00,718.00
             286.00,718.00 285.09,730.00 285.09,730.00
             282.77,763.12 276.31,796.03 267.42,828.00
             263.79,841.07 261.37,854.60 255.69,867.00
             255.69,867.00 243.78,889.00 243.78,889.00
             238.03,900.08 235.13,912.65 221.00,916.39
             217.99,917.19 213.21,917.03 210.00,917.00
             195.21,916.82 190.22,910.27 179.00,902.44
             174.82,899.52 169.77,897.56 167.09,892.98
             164.75,889.01 162.32,872.60 161.20,867.00
             157.94,850.69 156.08,830.68 154.91,814.00
             154.91,814.00 153.00,791.00 153.00,791.00
             153.00,791.00 153.00,766.00 153.00,766.00
             153.00,766.00 152.00,749.00 152.00,749.00
             152.00,749.00 152.00,676.00 152.00,676.00
             152.00,676.00 153.00,658.00 153.00,658.00
             153.00,658.00 154.83,636.00 154.83,636.00
             154.83,636.00 156.17,619.00 156.17,619.00
             156.17,619.00 165.73,552.00 165.73,552.00
             165.73,552.00 176.42,479.00 176.42,479.00
             182.51,445.25 190.17,411.17 198.88,378.00
             198.88,378.00 214.34,324.00 214.34,324.00
             214.34,324.00 223.66,298.00 223.66,298.00
             223.66,298.00 232.33,271.00 232.33,271.00
             240.33,247.08 253.07,225.19 264.78,203.00
             264.78,203.00 275.00,185.00 275.00,185.00
             276.56,182.29 278.84,177.62 281.33,175.86
             284.82,173.38 287.31,175.30 292.00,173.04
             295.93,171.16 298.44,167.98 303.00,167.23
             306.17,166.71 309.95,167.57 313.00,168.43
             326.36,172.19 327.02,176.45 332.75,188.00
             342.41,207.44 349.05,244.27 348.26,266.00
             347.34,290.99 339.75,318.18 332.35,342.00
             332.35,342.00 328.54,360.00 328.54,360.00
             328.54,360.00 320.03,376.00 320.03,376.00
             320.03,376.00 314.42,388.00 314.42,388.00
             309.09,400.31 297.94,428.55 291.08,438.00
             281.38,451.36 280.55,448.62 270.00,457.33
             270.00,457.33 255.00,470.54 255.00,470.54
             249.70,474.78 242.51,476.93 239.57,483.00
             238.07,486.11 237.90,490.54 237.42,494.00
             237.42,494.00 234.71,521.00 234.71,521.00
             233.14,532.68 228.16,542.53 228.00,556.00
             228.00,556.00 228.00,568.00 228.00,568.00
             227.95,577.93 223.83,590.86 221.66,601.00
             221.66,601.00 218.28,621.00 218.28,621.00
             218.28,621.00 211.10,684.00 211.10,684.00
             211.10,684.00 212.00,696.00 212.00,696.00
             212.10,704.75 211.24,705.22 210.29,713.00
             210.29,713.00 208.92,733.00 208.92,733.00
             208.92,733.00 208.92,753.00 208.92,753.00
             208.35,758.00 206.81,764.10 207.09,769.00
             207.09,769.00 210.00,804.00 210.00,804.00
             210.00,804.00 209.04,821.00 209.04,821.00
             209.43,831.03 211.30,828.94 210.74,844.00
             210.74,844.00 213.00,868.00 213.00,868.00
             213.00,868.00 213.00,872.00 213.00,872.00
             213.10,877.29 214.89,882.12 220.39,876.77
             220.39,876.77 234.66,858.00 234.66,858.00
             248.54,837.57 254.57,817.99 259.20,794.00
             262.78,775.44 264.77,752.93 266.09,734.00
             266.09,734.00 268.00,704.00 268.00,704.00
             268.00,704.00 269.00,688.00 269.00,688.00
             269.00,688.00 269.00,649.00 269.00,649.00
             268.94,612.99 249.84,580.37 242.00,546.00
             245.00,546.10 247.23,546.05 249.81,547.89 Z
           M 266.42,413.00
           C 266.42,413.00 280.26,388.00 280.26,388.00
             280.26,388.00 293.97,364.00 293.97,364.00
             293.97,364.00 307.42,318.00 307.42,318.00
             307.42,318.00 320.23,280.00 320.23,280.00
             320.23,280.00 323.20,266.00 323.20,266.00
             323.58,264.11 324.53,259.90 324.48,258.17
             324.48,258.17 322.43,249.00 322.43,249.00
             322.43,249.00 319.13,225.00 319.13,225.00
             318.54,220.82 317.92,212.34 314.58,209.60
             310.24,206.03 305.76,210.43 303.47,214.02
             298.56,221.68 294.41,232.82 294.91,242.00
             294.91,242.00 294.91,251.42 294.91,251.42
             294.91,251.42 286.46,283.00 286.46,283.00
             286.46,283.00 281.79,309.00 281.79,309.00
             281.79,309.00 265.28,372.00 265.28,372.00
             265.28,372.00 255.63,409.00 255.63,409.00
             253.78,416.38 251.02,421.69 254.00,429.00
             261.28,424.00 262.16,420.36 266.42,413.00 Z
           M 567.00,409.00
           C 567.00,409.00 546.14,450.00 546.14,450.00
             542.51,456.54 536.17,466.45 536.61,474.00
             536.73,476.14 537.41,478.96 538.09,481.00
             543.15,496.12 555.55,492.45 568.00,490.00
             573.82,488.86 581.39,488.94 584.43,482.96
             585.93,480.00 585.83,477.16 586.16,474.00
             587.69,459.75 584.33,456.00 579.42,443.00
             579.42,443.00 569.00,409.00 569.00,409.00
             569.00,409.00 567.00,409.00 567.00,409.00 Z
           M 878.00,473.00
           C 882.48,470.31 881.95,467.83 882.00,463.00
             878.71,466.46 878.42,468.35 878.00,473.00 Z
           M 511.05,527.00
           C 505.56,542.04 499.33,559.81 500.04,576.00
             500.27,581.31 502.07,587.79 503.37,593.00
             506.16,604.13 509.05,621.94 525.00,618.47
             535.47,616.19 544.53,606.66 551.28,599.00
             557.36,592.11 564.17,587.01 568.91,579.00
             573.14,571.83 575.76,558.36 577.65,550.00
             577.65,550.00 583.20,524.00 583.20,524.00
             584.39,517.48 583.71,513.58 576.00,514.17
             576.00,514.17 564.00,515.61 564.00,515.61
             556.68,517.49 552.44,521.46 544.00,519.24
             531.41,515.92 529.78,505.06 521.11,505.66
             515.94,508.76 513.21,521.11 511.05,527.00 Z" />
</svg>
